# xmcd CD database file
#
# Track frame offsets:
#	150
#	25517
#	44212
#	61155
#	79420
#	105520
#	119887
#	134435
#	152907
#	174305
#	198777
#	218015
#
# Disc length: 3243 seconds
#
# Revision: 0
# Processed by: cddbd v1.5.2PL0 Copyright (c) Steve Scherf et al.
# Submitted via: CDex 1.70beta2
#
DISCID=a60ca90c
DTITLE=Melwood Cutlery - If It Rains
DYEAR=1900
DGENRE=Country
TTITLE0=If It Rains
TTITLE1=Little Missunderstood
TTITLE2=Lay Down My Love
TTITLE3=A Change Must Come
TTITLE4=Two Lane Highway
TTITLE5=For Emily
TTITLE6=Great northern Diver
TTITLE7=our Love
TTITLE8=Something Nice
TTITLE9=Waterfall of Love
TTITLE10=When the Wind Blows
TTITLE11=To Lane Highway - solo
EXTD=
EXTT0=
EXTT1=
EXTT2=
EXTT3=
EXTT4=
EXTT5=
EXTT6=
EXTT7=
EXTT8=
EXTT9=
EXTT10=
EXTT11=
PLAYORDER=
